<svg width="18" height="18" viewBox="0 0 18 18" fill="none" xmlns="http://www.w3.org/2000/svg">
    <path
        d="M15.9055 3.21485L9.22575 0.0507833C9.08288 -0.0169278 8.91719 -0.0169278 8.77428 0.0507833L2.09457 3.21485C1.91039 3.30215 1.79297 3.48767 1.79297 3.69147V9.82301C1.79297 11.8116 2.76075 13.6865 4.38185 14.8383L8.69458 17.9026C8.78605 17.9676 8.89303 18.0001 9.00001 18.0001C9.107 18.0001 9.21401 17.9676 9.30545 17.9026L13.6182 14.8383C15.2393 13.6865 16.2071 11.8116 16.2071 9.82297V3.69147C16.2071 3.48767 16.0896 3.30215 15.9055 3.21485ZM9.00001 13.3946C7.15842 13.3946 5.66016 11.8963 5.66016 10.0547C5.66016 9.76349 5.89627 9.52738 6.18751 9.52738C6.47874 9.52738 6.71485 9.76349 6.71485 10.0547C6.71485 11.3148 7.73998 12.3399 9.00001 12.3399C9.29125 12.3399 9.52736 12.576 9.52736 12.8672C9.52736 13.1585 9.29125 13.3946 9.00001 13.3946ZM9.00001 7.06647C8.70924 7.06647 8.47267 7.30304 8.47267 7.59382V7.94538C8.47267 8.23662 8.23656 8.47273 7.94532 8.47273C7.65409 8.47273 7.41798 8.23662 7.41798 7.94538V7.59382C7.41798 6.72148 8.12768 6.01178 9.00001 6.01178C9.87235 6.01178 10.582 6.72148 10.582 7.59382V8.64851C10.582 8.93974 10.3459 9.17585 10.0547 9.17585C9.76347 9.17585 9.52736 8.93974 9.52736 8.64851V7.59382C9.52736 7.30304 9.29079 7.06647 9.00001 7.06647ZM7.94532 8.96491C8.23656 8.96491 8.47267 9.20102 8.47267 9.49226V10.0548C8.47267 10.3455 8.70924 10.5821 9.00001 10.5821C9.29079 10.5821 9.52736 10.3455 9.52736 10.0548C9.52736 9.76353 9.76347 9.52742 10.0547 9.52742C10.3459 9.52742 10.582 9.76353 10.582 10.0548C10.582 10.9271 9.87235 11.6368 9.00001 11.6368C8.12768 11.6368 7.41798 10.9271 7.41798 10.0548V9.49226C7.41798 9.20099 7.65409 8.96491 7.94532 8.96491ZM10.944 12.7708C10.7075 12.9404 10.378 12.8863 10.2082 12.6494C10.0385 12.4127 10.0928 12.0833 10.3295 11.9136C10.9279 11.4846 11.2852 10.7897 11.2852 10.0547C11.2852 9.76349 11.5213 9.52738 11.8125 9.52738C12.1038 9.52738 12.3399 9.76349 12.3399 10.0547C12.3399 11.1289 11.818 12.1443 10.944 12.7708ZM12.3399 8.29694C12.3399 8.58818 12.1038 8.82429 11.8125 8.82429C11.5213 8.82429 11.2852 8.58818 11.2852 8.29694V7.59382C11.2852 6.33378 10.2601 5.30866 9.00001 5.30866C7.73998 5.30866 6.71485 6.33378 6.71485 7.59382V8.29694C6.71485 8.58818 6.47874 8.82429 6.18751 8.82429C5.89627 8.82429 5.66016 8.58818 5.66016 8.29694V7.59382C5.66016 5.75222 7.15842 4.25397 9.00001 4.25397C10.8416 4.25397 12.3399 5.75222 12.3399 7.59382V8.29694Z"
        fill="currentColor" />
</svg>
