<svg width="18" height="18" viewBox="0 0 18 18" fill="none" xmlns="http://www.w3.org/2000/svg">
    <path fill-rule="evenodd" clip-rule="evenodd"
        d="M8.871 1.6875C8.184 1.6875 7.59675 2.18475 7.4835 2.86275L7.41525 3.2745C7.39633 3.37786 7.35054 3.47441 7.28248 3.55446C7.21441 3.6345 7.12647 3.69522 7.0275 3.7305C6.90632 3.77583 6.78674 3.82536 6.669 3.879C6.57404 3.92414 6.46887 3.94348 6.36406 3.93505C6.25926 3.92662 6.15852 3.89073 6.072 3.831L5.73225 3.588C5.46134 3.39445 5.13055 3.3033 4.79875 3.33077C4.46694 3.35824 4.15564 3.50254 3.92025 3.738L3.738 3.92025C3.50254 4.15564 3.35824 4.46694 3.33077 4.79875C3.3033 5.13055 3.39445 5.46134 3.588 5.73225L3.831 6.072C3.89073 6.15852 3.92662 6.25926 3.93505 6.36406C3.94348 6.46887 3.92414 6.57404 3.879 6.669C3.82536 6.78674 3.77583 6.90632 3.7305 7.0275C3.69522 7.12647 3.6345 7.21441 3.55446 7.28248C3.47441 7.35054 3.37786 7.39633 3.2745 7.41525L2.862 7.48425C2.53381 7.53908 2.2357 7.70851 2.02066 7.96242C1.80561 8.21633 1.68756 8.53826 1.6875 8.871V9.129C1.6875 9.816 2.18475 10.4033 2.86275 10.5165L3.2745 10.5848C3.48525 10.62 3.6555 10.7723 3.7305 10.9725C3.7755 11.094 3.82575 11.2133 3.879 11.331C3.92414 11.426 3.94348 11.5311 3.93505 11.6359C3.92662 11.7407 3.89073 11.8415 3.831 11.928L3.588 12.2677C3.39445 12.5387 3.3033 12.8694 3.33077 13.2013C3.35824 13.5331 3.50254 13.8444 3.738 14.0798L3.92025 14.262C4.40625 14.748 5.17275 14.8117 5.73225 14.412L6.072 14.169C6.15852 14.1093 6.25926 14.0734 6.36406 14.065C6.46887 14.0565 6.57404 14.0759 6.669 14.121C6.78675 14.1742 6.906 14.2237 7.0275 14.2695C7.22775 14.3445 7.38 14.5148 7.41525 14.7255L7.48425 15.138C7.59675 15.8153 8.18325 16.3125 8.871 16.3125H9.129C9.816 16.3125 10.4033 15.8153 10.5165 15.1373L10.5848 14.7255C10.6037 14.6221 10.6495 14.5256 10.7175 14.4455C10.7856 14.3655 10.8735 14.3048 10.9725 14.2695C11.0937 14.2241 11.2132 14.1746 11.331 14.121C11.426 14.0759 11.5311 14.0565 11.6359 14.065C11.7407 14.0734 11.8415 14.1093 11.928 14.169L12.2677 14.412C12.5387 14.6055 12.8694 14.6967 13.2013 14.6692C13.5331 14.6418 13.8444 14.4975 14.0798 14.262L14.262 14.0798C14.748 13.5938 14.8117 12.8273 14.412 12.2677L14.169 11.928C14.1093 11.8415 14.0734 11.7407 14.065 11.6359C14.0565 11.5311 14.0759 11.426 14.121 11.331C14.1742 11.2133 14.2237 11.094 14.2695 10.9725C14.3445 10.7723 14.5148 10.62 14.7255 10.5848L15.138 10.5165C15.4663 10.4616 15.7645 10.2921 15.9796 10.038C16.1946 9.78398 16.3126 9.46186 16.3125 9.129V8.871C16.3125 8.184 15.8153 7.59675 15.1373 7.4835L14.7255 7.41525C14.6221 7.39633 14.5256 7.35054 14.4455 7.28248C14.3655 7.21441 14.3048 7.12647 14.2695 7.0275C14.2241 6.90633 14.1746 6.78676 14.121 6.669C14.0759 6.57404 14.0565 6.46887 14.065 6.36406C14.0734 6.25926 14.1093 6.15852 14.169 6.072L14.412 5.73225C14.6055 5.46134 14.6967 5.13055 14.6692 4.79875C14.6418 4.46694 14.4975 4.15564 14.262 3.92025L14.0798 3.738C13.8444 3.50254 13.5331 3.35824 13.2013 3.33077C12.8694 3.3033 12.5387 3.39445 12.2677 3.588L11.928 3.831C11.8415 3.89073 11.7407 3.92662 11.6359 3.93505C11.5311 3.94348 11.426 3.92414 11.331 3.879C11.2133 3.82537 11.0937 3.77584 10.9725 3.7305C10.8735 3.69522 10.7856 3.6345 10.7175 3.55446C10.6495 3.47441 10.6037 3.37786 10.5848 3.2745L10.5165 2.862C10.4616 2.53369 10.2921 2.23548 10.038 2.02041C9.78398 1.80535 9.46186 1.68739 9.129 1.6875H8.871ZM9 11.8125C9.74592 11.8125 10.4613 11.5162 10.9887 10.9887C11.5162 10.4613 11.8125 9.74592 11.8125 9C11.8125 8.25408 11.5162 7.53871 10.9887 7.01126C10.4613 6.48382 9.74592 6.1875 9 6.1875C8.25408 6.1875 7.53871 6.48382 7.01126 7.01126C6.48382 7.53871 6.1875 8.25408 6.1875 9C6.1875 9.74592 6.48382 10.4613 7.01126 10.9887C7.53871 11.5162 8.25408 11.8125 9 11.8125Z"
        fill="currentColor" />
</svg>
