<svg width="16" height="16" viewBox="0 0 16 16" fill="none" xmlns="http://www.w3.org/2000/svg">
    <path
        d="M13.3334 4.16669H12.8267C12.6715 4.16856 12.5189 4.12632 12.3867 4.04489C12.2545 3.96346 12.1482 3.84618 12.08 3.70669L11.48 2.51335C11.329 2.20783 11.0952 1.95086 10.8052 1.77171C10.5153 1.59256 10.1809 1.49842 9.84004 1.50002H6.16004C5.81922 1.49842 5.4848 1.59256 5.19485 1.77171C4.90491 1.95086 4.6711 2.20783 4.52004 2.51335L3.92004 3.70669C3.85189 3.84618 3.74555 3.96346 3.61337 4.04489C3.48119 4.12632 3.32861 4.16856 3.17337 4.16669H2.66671C2.18048 4.16669 1.71416 4.35984 1.37034 4.70366C1.02653 5.04747 0.833374 5.51379 0.833374 6.00002V12.6667C0.833374 13.1529 1.02653 13.6192 1.37034 13.963C1.71416 14.3069 2.18048 14.5 2.66671 14.5H13.3334C13.8196 14.5 14.2859 14.3069 14.6297 13.963C14.9736 13.6192 15.1667 13.1529 15.1667 12.6667V6.00002C15.1667 5.51379 14.9736 5.04747 14.6297 4.70366C14.2859 4.35984 13.8196 4.16669 13.3334 4.16669ZM8.00004 12.1667C7.30781 12.1667 6.63112 11.9614 6.05555 11.5768C5.47997 11.1922 5.03137 10.6456 4.76646 10.0061C4.50156 9.36654 4.43224 8.6628 4.56729 7.98387C4.70234 7.30494 5.03568 6.6813 5.52517 6.19181C6.01465 5.70233 6.63829 5.36899 7.31722 5.23394C7.99616 5.09889 8.69989 5.1682 9.33943 5.43311C9.97897 5.69802 10.5256 6.14662 10.9102 6.72219C11.2948 7.29776 11.5 7.97445 11.5 8.66669C11.4983 9.5944 11.129 10.4836 10.473 11.1396C9.81697 11.7956 8.92776 12.1649 8.00004 12.1667Z"
        fill="currentColor" />
    <path
        d="M8 11.168C9.38071 11.168 10.5 10.0487 10.5 8.66797C10.5 7.28726 9.38071 6.16797 8 6.16797C6.61929 6.16797 5.5 7.28726 5.5 8.66797C5.5 10.0487 6.61929 11.168 8 11.168Z"
        fill="currentColor" />
</svg>
