<svg width="20" height="20" viewBox="0 0 20 20" fill="none" xmlns="http://www.w3.org/2000/svg">
    <path
        d="M14.167 5.83301C13.6147 5.83235 13.0851 5.61264 12.6946 5.22208C12.304 4.83153 12.0843 4.30201 12.0837 3.74967V0.833008H5.00033C4.44779 0.833008 3.91789 1.0525 3.52719 1.4432C3.13649 1.8339 2.91699 2.36381 2.91699 2.91634V17.083C2.91699 17.6355 3.13649 18.1654 3.52719 18.5561C3.91789 18.9468 4.44779 19.1663 5.00033 19.1663H13.3337C12.5888 19.1671 11.8574 18.9682 11.2155 18.5904C10.5736 18.2125 10.0448 17.6695 9.68399 17.0179C9.32321 16.3662 9.1437 15.6298 9.16416 14.8853C9.18461 14.1407 9.40428 13.4152 9.80029 12.7844C10.1963 12.1535 10.7542 11.6404 11.4158 11.2983C12.0775 10.9563 12.8187 10.7979 13.5624 10.8395C14.3061 10.8812 15.025 11.1215 15.6443 11.5353C16.2636 11.9492 16.7606 12.5214 17.0837 13.1926V5.83301H14.167ZM5.83366 4.58301H10.417C10.5275 4.58301 10.6335 4.62691 10.7116 4.70505C10.7898 4.78319 10.8337 4.88917 10.8337 4.99967C10.8337 5.11018 10.7898 5.21616 10.7116 5.2943C10.6335 5.37244 10.5275 5.41634 10.417 5.41634H5.83366C5.72315 5.41634 5.61717 5.37244 5.53903 5.2943C5.46089 5.21616 5.41699 5.11018 5.41699 4.99967C5.41699 4.88917 5.46089 4.78319 5.53903 4.70505C5.61717 4.62691 5.72315 4.58301 5.83366 4.58301ZM7.91699 16.2497H5.83366C5.72315 16.2497 5.61717 16.2058 5.53903 16.1276C5.46089 16.0495 5.41699 15.9435 5.41699 15.833C5.41699 15.7225 5.46089 15.6165 5.53903 15.5384C5.61717 15.4602 5.72315 15.4163 5.83366 15.4163H7.91699C8.0275 15.4163 8.13348 15.4602 8.21162 15.5384C8.28976 15.6165 8.33366 15.7225 8.33366 15.833C8.33366 15.9435 8.28976 16.0495 8.21162 16.1276C8.13348 16.2058 8.0275 16.2497 7.91699 16.2497ZM5.41699 13.7497C5.41699 13.6392 5.46089 13.5332 5.53903 13.455C5.61717 13.3769 5.72315 13.333 5.83366 13.333H7.50033C7.61083 13.333 7.71681 13.3769 7.79495 13.455C7.87309 13.5332 7.91699 13.6392 7.91699 13.7497C7.91699 13.8602 7.87309 13.9662 7.79495 14.0443C7.71681 14.1224 7.61083 14.1663 7.50033 14.1663H5.83366C5.72315 14.1663 5.61717 14.1224 5.53903 14.0443C5.46089 13.9662 5.41699 13.8602 5.41699 13.7497ZM8.33366 12.083H5.83366C5.72315 12.083 5.61717 12.0391 5.53903 11.961C5.46089 11.8828 5.41699 11.7768 5.41699 11.6663C5.41699 11.5558 5.46089 11.4499 5.53903 11.3717C5.61717 11.2936 5.72315 11.2497 5.83366 11.2497H8.33366C8.44417 11.2497 8.55015 11.2936 8.62829 11.3717C8.70643 11.4499 8.75033 11.5558 8.75033 11.6663C8.75033 11.7768 8.70643 11.8828 8.62829 11.961C8.55015 12.0391 8.44417 12.083 8.33366 12.083ZM14.167 9.99967H5.83366C5.72315 9.99967 5.61717 9.95578 5.53903 9.87764C5.46089 9.7995 5.41699 9.69351 5.41699 9.58301C5.41699 9.4725 5.46089 9.36652 5.53903 9.28838C5.61717 9.21024 5.72315 9.16634 5.83366 9.16634H14.167C14.2775 9.16634 14.3835 9.21024 14.4616 9.28838C14.5398 9.36652 14.5837 9.4725 14.5837 9.58301C14.5837 9.69351 14.5398 9.7995 14.4616 9.87764C14.3835 9.95578 14.2775 9.99967 14.167 9.99967ZM14.167 7.91634H7.08366C6.97315 7.91634 6.86717 7.87244 6.78903 7.7943C6.71089 7.71616 6.66699 7.61018 6.66699 7.49967C6.66699 7.38917 6.71089 7.28319 6.78903 7.20505C6.86717 7.12691 6.97315 7.08301 7.08366 7.08301H14.167C14.2775 7.08301 14.3835 7.12691 14.4616 7.20505C14.5398 7.28319 14.5837 7.38917 14.5837 7.49967C14.5837 7.61018 14.5398 7.71616 14.4616 7.7943C14.3835 7.87244 14.2775 7.91634 14.167 7.91634Z"
        fill="currentColor" />
    <path
        d="M16.8395 4.75613L13.1612 1.0778C13.0904 1.00805 13.0077 0.951598 12.917 0.911133V3.7503C12.917 4.08182 13.0487 4.39976 13.2831 4.63418C13.5175 4.8686 13.8355 5.0003 14.167 5.0003H17.0062C16.9657 4.90957 16.9092 4.82687 16.8395 4.75613Z"
        fill="currentColor" />
    <path
        d="M18.0459 18.5378L16.2025 16.6912C16.6162 15.9907 16.7601 15.1633 16.6072 14.3642C16.4544 13.5652 16.0153 12.8493 15.3723 12.3509C14.7293 11.8525 13.9266 11.6058 13.1147 11.657C12.3028 11.7082 11.5374 12.0539 10.9622 12.6291C10.3869 13.2044 10.0412 13.9698 9.99003 14.7817C9.93881 15.5936 10.1855 16.3963 10.6839 17.0393C11.1824 17.6823 11.8982 18.1214 12.6973 18.2742C13.4963 18.4271 14.3237 18.2832 15.0242 17.8695L16.8709 19.7128C16.948 19.79 17.0396 19.8512 17.1404 19.893C17.2412 19.9347 17.3492 19.9562 17.4584 19.9562C17.5675 19.9562 17.6755 19.9347 17.7763 19.893C17.8771 19.8512 17.9687 19.79 18.0459 19.7128C18.123 19.6357 18.1842 19.5441 18.226 19.4433C18.2677 19.3425 18.2892 19.2345 18.2892 19.1253C18.2892 19.0162 18.2677 18.9082 18.226 18.8074C18.1842 18.7066 18.123 18.615 18.0459 18.5378ZM11.25 15.0003C11.25 14.5883 11.3722 14.1855 11.6011 13.8429C11.83 13.5003 12.1554 13.2333 12.5361 13.0756C12.9168 12.9179 13.3357 12.8767 13.7398 12.957C14.1439 13.0374 14.5151 13.2358 14.8065 13.5272C15.0979 13.8186 15.2963 14.1898 15.3767 14.5939C15.457 14.998 15.4158 15.4169 15.2581 15.7976C15.1004 16.1783 14.8334 16.5037 14.4908 16.7326C14.1482 16.9615 13.7454 17.0837 13.3334 17.0837C13.0598 17.0837 12.7889 17.0298 12.5361 16.9251C12.2833 16.8204 12.0537 16.6669 11.8602 16.4735C11.6668 16.28 11.5133 16.0504 11.4086 15.7976C11.3039 15.5448 11.25 15.2739 11.25 15.0003Z"
        fill="currentColor" />
</svg>
