<svg width="18" height="18" viewBox="0 0 18 18" fill="none" xmlns="http://www.w3.org/2000/svg">
    <path fill-rule="evenodd" clip-rule="evenodd"
        d="M1.6875 9C1.6875 4.96125 4.96125 1.6875 9 1.6875C13.0387 1.6875 16.3125 4.96125 16.3125 9C16.3125 13.0387 13.0387 16.3125 9 16.3125C4.96125 16.3125 1.6875 13.0387 1.6875 9ZM10.221 6.06225C9.5535 5.4795 8.4465 5.4795 7.77975 6.06225C7.66746 6.16051 7.52074 6.21015 7.37186 6.20023C7.22298 6.19031 7.08414 6.12166 6.98588 6.00937C6.88761 5.89709 6.83798 5.75037 6.8479 5.60149C6.85781 5.45261 6.92646 5.31376 7.03875 5.2155C8.12925 4.2615 9.87075 4.2615 10.9613 5.2155C12.096 6.2085 12.096 7.854 10.9613 8.847C10.7715 9.01248 10.5603 9.15172 10.3335 9.261C9.8265 9.507 9.5625 9.8415 9.5625 10.125V10.6875C9.5625 10.8367 9.50324 10.9798 9.39775 11.0852C9.29226 11.1907 9.14918 11.25 9 11.25C8.85082 11.25 8.70774 11.1907 8.60225 11.0852C8.49676 10.9798 8.4375 10.8367 8.4375 10.6875V10.125C8.4375 9.16575 9.2325 8.54475 9.84375 8.2485C9.98025 8.1825 10.107 8.09925 10.221 8.00025C10.8435 7.455 10.8435 6.6075 10.221 6.06225ZM9 13.5C9.14918 13.5 9.29226 13.4407 9.39775 13.3352C9.50324 13.2298 9.5625 13.0867 9.5625 12.9375C9.5625 12.7883 9.50324 12.6452 9.39775 12.5398C9.29226 12.4343 9.14918 12.375 9 12.375C8.85082 12.375 8.70774 12.4343 8.60225 12.5398C8.49676 12.6452 8.4375 12.7883 8.4375 12.9375C8.4375 13.0867 8.49676 13.2298 8.60225 13.3352C8.70774 13.4407 8.85082 13.5 9 13.5Z"
        fill="currentColor" />
</svg>
