<?xml version="1.0" encoding="UTF-8"?>
<svg version="1.1" xmlns="http://www.w3.org/2000/svg" width="512" height="512">
    <path
        d="M0 0 C0.92149841 0.00016113 1.84299683 0.00032227 2.79241943 0.00048828 C16.60387997 0.01729602 29.83244063 0.82008309 43.4375 3.3125 C51.31010947 42.20042425 56.92928839 81.14737618 60.67578125 120.64453125 C60.77065575 121.6311097 60.77065575 121.6311097 60.8674469 122.63761902 C61.53418521 129.85708019 61.95471454 137.07071815 62.4375 144.3125 C21.5175 144.3125 -19.4025 144.3125 -61.5625 144.3125 C-58.02967781 100.74102635 -58.02967781 100.74102635 -56.25 86.3125 C-56.1471167 85.46214172 -56.0442334 84.61178345 -55.93823242 83.73565674 C-52.69803289 57.06156516 -48.46521008 30.53400202 -42.5625 4.3125 C-28.58726455 0.09437503 -14.4821813 -0.05176945 0 0 Z "
        fill="currentColor" transform="translate(255.5625,31.6875)" />
    <path
        d="M0 0 C40.92 0 81.84 0 124 0 C120.48395646 43.36453702 120.48395646 43.36453702 118.1875 61.0625 C118.06127258 62.05519897 117.93504517 63.04789795 117.80499268 64.07067871 C114.5185904 89.87218263 110.43366888 115.55764453 105 141 C77.92892553 146.32545727 47.01568581 146.6875128 20 141 C17.06387569 134.31770414 16.09306933 127.0702293 14.75 119.9375 C14.59759857 119.13156403 14.44519714 118.32562805 14.28817749 117.49526978 C8.46387825 86.45570688 4.74377719 55.09554893 1.76171875 23.66796875 C1.69846405 23.01022461 1.63520935 22.35248047 1.57003784 21.67480469 C0.9033312 14.45536512 0.48278401 7.24176022 0 0 Z "
        fill="currentColor" transform="translate(194,336)" />
    <path
        d="M0 0 C42.24 0 84.48 0 128 0 C128 31.68 128 63.36 128 96 C85.76 96 43.52 96 0 96 C0 64.32 0 32.64 0 0 Z "
        fill="currentColor" transform="translate(192,208)" />
    <path
        d="M0 0 C41.25 0 82.5 0 125 0 C125 31.68 125 63.36 125 96 C83.75 96 42.5 96 0 96 C-2.20665021 83.4956488 -4.12364695 72.06084909 -4.23828125 59.53125 C-4.25038887 58.21332458 -4.25038887 58.21332458 -4.26274109 56.86877441 C-4.27648083 55.01328437 -4.28724748 53.15777012 -4.29516602 51.30224609 C-4.3065453 49.46264875 -4.3267659 47.62308056 -4.35668945 45.78369141 C-4.61345518 29.91011835 -2.46386316 16.01511053 0 0 Z "
        fill="currentColor" transform="translate(36,208)" />
    <path
        d="M0 0 C41.25 0 82.5 0 125 0 C129.66312057 31.47606383 129.66312057 31.47606383 129.52148438 45.49804688 C129.49995803 48.00488773 129.5215542 50.50886586 129.546875 53.015625 C129.50128451 67.92371606 127.24544665 80.8432351 125 96 C83.75 96 42.5 96 0 96 C0 64.32 0 32.64 0 0 Z "
        fill="currentColor" transform="translate(351,208)" />
    <path
        d="M0 0 C7.38016879 1.96911228 14.13276283 4.67201316 21 8 C21.99821777 8.48202881 22.99643555 8.96405762 24.02490234 9.46069336 C38.38469323 16.51689623 51.66270861 24.81063446 64 35 C64.55606934 35.45455566 65.11213867 35.90911133 65.68505859 36.37744141 C95.69480821 61.0261932 121.59313643 93.77940928 134 131 C95.39 131 56.78 131 17 131 C15.73221249 127.19663748 15.54354693 123.45045328 15.23828125 119.48046875 C15.09124603 117.67767962 14.94350749 115.87494774 14.79516602 114.07226562 C14.71710724 113.11489502 14.63904846 112.15752441 14.55862427 111.17114258 C11.85810191 78.43404771 7.90773124 45.82473378 1.98046875 13.5078125 C1.15721263 9.01468392 0.5086037 4.53915132 0 0 Z "
        fill="currentColor" transform="translate(332,45)" />
    <path
        d="M0 0 C38.61 0 77.22 0 117 0 C118.26778751 3.80336252 118.45645307 7.54954672 118.76171875 11.51953125 C118.90875397 13.32232038 119.05649251 15.12505226 119.20483398 16.92773438 C119.28289276 17.88510498 119.36095154 18.84247559 119.44137573 19.82885742 C122.14189809 52.56595229 126.09226876 85.17526622 132.01953125 117.4921875 C132.84278737 121.98531608 133.4913963 126.46084868 134 131 C126.23111863 128.96070898 119.15721818 125.99568135 111.9375 122.5 C110.84348877 121.97172607 109.74947754 121.44345215 108.62231445 120.89916992 C99.24439078 116.28146681 90.51363997 111.05101684 82 105 C80.94039063 104.25234375 79.88078125 103.5046875 78.7890625 102.734375 C43.93282947 77.30121809 13.79109142 41.37327425 0 0 Z "
        fill="currentColor" transform="translate(46,336)" />
    <path
        d="M0 0 C38.61 0 77.22 0 117 0 C108.83342335 19.83311471 108.83342335 19.83311471 105.0625 26.8125 C104.638479 27.60599854 104.21445801 28.39949707 103.77758789 29.21704102 C100.22858281 35.76428608 96.35970729 41.95488318 92 48 C91.31550781 48.95777344 90.63101563 49.91554688 89.92578125 50.90234375 C77.38891802 68.03080501 62.95701233 84.14791714 46 97 C45.0416626 97.73234863 45.0416626 97.73234863 44.06396484 98.47949219 C30.14976001 109.04927605 15.5887794 117.41308272 -0.125 125 C-0.89448975 125.37415039 -1.66397949 125.74830078 -2.45678711 126.13378906 C-7.24508683 128.38772096 -11.82677196 129.87385512 -17 131 C-16.89405518 130.37665771 -16.78811035 129.75331543 -16.67895508 129.11108398 C-10.02334303 89.58714672 -4.28146951 49.87040468 -1.54370117 9.86010742 C-1.45245972 8.53329956 -1.45245972 8.53329956 -1.359375 7.1796875 C-1.28928223 6.06182861 -1.28928223 6.06182861 -1.21777344 4.92138672 C-1 3 -1 3 0 0 Z "
        fill="currentColor" transform="translate(349,336)" />
    <path
        d="M0 0 C-0.10594482 0.62334229 -0.21188965 1.24668457 -0.32104492 1.88891602 C-6.97665697 41.41285328 -12.71853049 81.12959532 -15.45629883 121.13989258 C-15.51712646 122.02443115 -15.5779541 122.90896973 -15.640625 123.8203125 C-15.68735352 124.56555176 -15.73408203 125.31079102 -15.78222656 126.07861328 C-16 128 -16 128 -17 131 C-55.61 131 -94.22 131 -134 131 C-125.83342335 111.16688529 -125.83342335 111.16688529 -122.0625 104.1875 C-121.638479 103.39400146 -121.21445801 102.60050293 -120.77758789 101.78295898 C-117.22858281 95.23571392 -113.35970729 89.04511682 -109 83 C-108.31550781 82.04222656 -107.63101563 81.08445312 -106.92578125 80.09765625 C-94.36718734 62.9395055 -79.93163762 46.93420893 -63 34 C-62.46358887 33.58186035 -61.92717773 33.1637207 -61.37451172 32.73291016 C-19.25522163 -0 -19.25522163 -0 0 0 Z "
        fill="currentColor" transform="translate(180,45)" />
</svg>
