<svg width="20" height="20" viewBox="0 0 20 20" fill="none" xmlns="http://www.w3.org/2000/svg">

<path fill-rule="evenodd" clip-rule="evenodd" d="M2.45465 3.84223L7.85777 9.24769C9.03621 10.4239 10.9625 10.4249 12.142 9.24769L17.5451 3.84223C17.5995 3.78781 17.5916 3.6982 17.5284 3.65418C16.9773 3.26984 16.3068 3.04199 15.5846 3.04199H4.4152C3.69289 3.04199 3.02238 3.26988 2.47129 3.65418C2.40816 3.6982 2.40023 3.78781 2.45465 3.84223ZM1.01074 6.44641C1.01074 5.87844 1.15156 5.3418 1.39961 4.87012C1.4384 4.79633 1.53672 4.78141 1.59566 4.84035L6.93039 10.1751C8.61973 11.8669 11.379 11.8679 13.0694 10.1751L18.4041 4.84035C18.463 4.78141 18.5614 4.79633 18.6002 4.87012C18.8482 5.3418 18.989 5.87848 18.989 6.44641V13.5533C18.989 15.432 17.4609 16.9578 15.5846 16.9578H4.4152C2.53895 16.9578 1.01074 15.432 1.01074 13.5533V6.44641Z" fill="currentColor"/>

</svg>
