<svg width="18" height="18" viewBox="0 0 18 18" fill="none" xmlns="http://www.w3.org/2000/svg">
    <path fill-rule="evenodd" clip-rule="evenodd"
        d="M3.93766 6.75C3.93766 5.40734 4.47103 4.11967 5.42043 3.17027C6.36984 2.22087 7.6575 1.6875 9.00016 1.6875C10.3428 1.6875 11.6305 2.22087 12.5799 3.17027C13.5293 4.11967 14.0627 5.40734 14.0627 6.75V7.3125C14.0627 8.90475 14.6627 10.3553 15.6512 11.4525C15.7127 11.5207 15.7567 11.603 15.7791 11.6922C15.8015 11.7813 15.8017 11.8746 15.7797 11.9638C15.7577 12.0531 15.7142 12.1356 15.653 12.2041C15.5917 12.2727 15.5146 12.3252 15.4284 12.357C14.2704 12.7845 13.0584 13.0995 11.8052 13.2892C11.8334 13.6749 11.7818 14.0621 11.6536 14.4269C11.5254 14.7917 11.3234 15.1261 11.0602 15.4093C10.797 15.6925 10.4782 15.9184 10.1237 16.0728C9.76928 16.2273 9.3868 16.307 9.00016 16.307C8.61353 16.307 8.23104 16.2273 7.8766 16.0728C7.52215 15.9184 7.20336 15.6925 6.94013 15.4093C6.6769 15.1261 6.47489 14.7917 6.34671 14.4269C6.21854 14.0621 6.16695 13.6749 6.19516 13.2892C4.9589 13.1019 3.7449 12.7893 2.57191 12.3563C2.48576 12.3244 2.40871 12.272 2.34748 12.2036C2.28626 12.1351 2.24272 12.0527 2.22067 11.9636C2.19863 11.8745 2.19874 11.7813 2.22101 11.6922C2.24328 11.6031 2.28702 11.5208 2.34841 11.4525C3.37352 10.3175 3.93997 8.84189 3.93766 7.3125V6.75ZM7.31416 13.425C7.30457 13.6524 7.34107 13.8794 7.42148 14.0923C7.50188 14.3052 7.62452 14.4997 7.78203 14.664C7.93953 14.8282 8.12865 14.959 8.33799 15.0483C8.54733 15.1376 8.77257 15.1836 9.00016 15.1836C9.22776 15.1836 9.453 15.1376 9.66234 15.0483C9.87168 14.959 10.0608 14.8282 10.2183 14.664C10.3758 14.4997 10.4984 14.3052 10.5788 14.0923C10.6593 13.8794 10.6958 13.6524 10.6862 13.425C9.56443 13.526 8.43589 13.526 7.31416 13.425Z"
        fill="currentColor" />
</svg>
