<svg width="18" height="18" viewBox="0 0 18 18" fill="none" xmlns="http://www.w3.org/2000/svg">

<path d="M8.9996 0.770508C6.73104 0.770508 4.88532 2.61623 4.88532 4.88479V7.45787H4.37129C3.37861 7.45787 2.57129 8.26535 2.57129 9.25787V15.4293C2.57129 16.4218 3.37861 17.2293 4.37129 17.2293H13.6284C14.6208 17.2293 15.4284 16.4218 15.4284 15.4293V9.25787C15.4284 8.26535 14.6208 7.45787 13.6284 7.45787H13.1139V4.88479C13.1139 2.61623 11.2682 0.770508 8.9996 0.770508ZM6.42818 4.88479C6.42818 3.46701 7.58182 2.31336 8.9996 2.31336C10.4174 2.31336 11.571 3.46701 11.571 4.88479V7.45787H6.42818V4.88479ZM6.17129 13.1202C5.74438 13.1202 5.39986 12.7756 5.39986 12.3487C5.39986 11.9218 5.74438 11.5773 6.17129 11.5773C6.59794 11.5773 6.94272 11.9218 6.94272 12.3487C6.94272 12.7756 6.59794 13.1202 6.17129 13.1202ZM8.99986 13.1202C8.57295 13.1202 8.22843 12.7756 8.22843 12.3487C8.22843 11.9218 8.57295 11.5773 8.99986 11.5773C9.42651 11.5773 9.77129 11.9218 9.77129 12.3487C9.77129 12.7756 9.42651 13.1202 8.99986 13.1202ZM11.8284 13.1202C11.4015 13.1202 11.057 12.7756 11.057 12.3487C11.057 11.9218 11.4015 11.5773 11.8284 11.5773C12.2551 11.5773 12.5999 11.9218 12.5999 12.3487C12.5999 12.7756 12.2551 13.1202 11.8284 13.1202Z" fill="currentColor"/>

</svg>
