<svg width="18" height="18" viewBox="0 0 18 18" fill="none" xmlns="http://www.w3.org/2000/svg">
    <g clip-path="url(#clip0_4440_2858)">
        <path
            d="M14.7557 14.7559L3.24341 3.24404L3.24095 3.24122C3.17863 3.17941 3.10473 3.13047 3.0235 3.09721C2.94226 3.06394 2.85526 3.04701 2.76748 3.04737C2.67969 3.04773 2.59284 3.06537 2.51187 3.0993C2.43091 3.13322 2.35742 3.18276 2.2956 3.24509C2.23378 3.30742 2.18485 3.38131 2.15158 3.46255C2.11832 3.54379 2.10139 3.63078 2.10175 3.71857C2.10247 3.89586 2.17359 4.06559 2.29947 4.19044L3.3074 5.19837C2.08505 6.03553 1.03292 7.09733 0.206969 8.32728C0.0720918 8.52642 0 8.76141 0 9.00193C0 9.24244 0.0720918 9.47744 0.206969 9.67658C2.31529 12.797 5.65759 14.6252 8.9999 14.6023C10.0825 14.6062 11.1579 14.426 12.1801 14.0693L13.8117 15.701C13.9374 15.8226 14.1059 15.8901 14.2808 15.8889C14.4557 15.8877 14.6232 15.8179 14.7473 15.6946C14.8713 15.5712 14.942 15.4041 14.9442 15.2292C14.9463 15.0543 14.8798 14.8855 14.7588 14.7591L14.7557 14.7559ZM8.9999 12.7879C8.36666 12.7877 7.74358 12.6287 7.1876 12.3256C6.63162 12.0225 6.16046 11.5849 5.81719 11.0528C5.47393 10.5207 5.26949 9.91101 5.22257 9.27952C5.17565 8.64802 5.28775 8.01483 5.54861 7.43783L6.60154 8.49076C6.51673 8.89041 6.53312 9.30492 6.64922 9.69663C6.76532 10.0883 6.97745 10.4448 7.26634 10.7337C7.55523 11.0226 7.91173 11.2348 8.30344 11.3509C8.69515 11.467 9.10966 11.4833 9.50931 11.3985L10.5622 12.4515C10.0715 12.674 9.53874 12.7887 8.9999 12.7879Z"
            fill="currentColor" />
        <path
            d="M17.7935 8.32517C15.6852 5.20295 12.3429 3.37482 9.00055 3.39767C7.91792 3.39375 6.84251 3.57398 5.82031 3.93064L7.4375 5.54783C8.13925 5.23026 8.92112 5.13409 9.6789 5.27216C10.4367 5.41022 11.1344 5.77595 11.6791 6.3206C12.2237 6.86526 12.5894 7.56298 12.7275 8.32076C12.8656 9.07855 12.7694 9.86042 12.4518 10.5622L14.6927 12.803C15.9152 11.966 16.9675 10.9042 17.7935 9.67412C17.9283 9.47502 18.0003 9.24009 18.0003 8.99965C18.0003 8.7592 17.9283 8.52427 17.7935 8.32517Z"
            fill="currentColor" />
        <path
            d="M8.99965 6.54834C8.82845 6.54836 8.65771 6.56627 8.49023 6.60178L11.398 9.5092C11.4738 9.15198 11.4689 8.78233 11.3836 8.42726C11.2982 8.07219 11.1347 7.74066 10.9048 7.4569C10.675 7.17313 10.3846 6.9443 10.055 6.78711C9.7254 6.62992 9.36483 6.54834 8.99965 6.54834Z"
            fill="currentColor" fill-opacity="0.6" />
    </g>
    <defs>
        <clipPath id="clip0_4440_2858">
            <rect width="18" height="18" fill="currentColor" />
        </clipPath>
    </defs>
</svg>
