<svg width="18" height="18" viewBox="0 0 18 18" fill="none" xmlns="http://www.w3.org/2000/svg">
    <path
        d="M9.00063 11.4519C10.3547 11.4519 11.4524 10.3542 11.4524 9.00014C11.4524 7.64605 10.3547 6.54834 9.00063 6.54834C7.64654 6.54834 6.54883 7.64605 6.54883 9.00014C6.54883 10.3542 7.64654 11.4519 9.00063 11.4519Z"
        fill="currentColor" />
    <path
        d="M17.7928 8.32517C15.6845 5.20295 12.3422 3.37482 8.9999 3.39767C5.65759 3.37482 2.31529 5.20295 0.206969 8.32517C0.0720918 8.52431 0 8.75931 0 8.99982C0 9.24034 0.0720918 9.47533 0.206969 9.67447C2.31529 12.7967 5.65759 14.6248 8.9999 14.602C12.3422 14.6248 15.6845 12.7967 17.7928 9.67447C17.9277 9.47533 17.9998 9.24034 17.9998 8.99982C17.9998 8.75931 17.9277 8.52431 17.7928 8.32517ZM8.9999 12.7876C8.25076 12.7876 7.51844 12.5654 6.89555 12.1492C6.27266 11.733 5.78717 11.1414 5.50049 10.4493C5.2138 9.75721 5.13879 8.99562 5.28494 8.26087C5.4311 7.52612 5.79184 6.85121 6.32157 6.32149C6.85129 5.79176 7.5262 5.43102 8.26095 5.28487C8.9957 5.13872 9.75728 5.21373 10.4494 5.50041C11.1415 5.7871 11.7331 6.27258 12.1493 6.89547C12.5655 7.51836 12.7876 8.25068 12.7876 8.99982C12.7876 10.0044 12.3886 10.9678 11.6782 11.6782C10.9679 12.3885 10.0045 12.7876 8.9999 12.7876Z"
        fill="currentColor" />
</svg>
