<svg width="18" height="18" viewBox="0 0 18 18" fill="none" xmlns="http://www.w3.org/2000/svg">
<path d="M16.3131 7.54805V10.4505C16.3131 10.743 16.0768 10.9849 15.7787 10.9849H13.4218C12.4206 10.9849 11.6162 10.1749 11.6162 9.1793V8.8193C11.6162 7.82367 12.4206 7.01367 13.4218 7.01367H15.7787C16.0768 7.01367 16.3131 7.25555 16.3131 7.54805Z" fill="currentColor"/>
<path d="M13.4213 6.17039H15.6263V5.10727C15.6263 3.99352 14.7206 3.08789 13.6012 3.08789H3.7125C2.59312 3.08789 1.6875 3.99352 1.6875 5.10727V10.1568C2.30625 9.4537 3.21019 9.00708 4.21875 9.00708C6.08006 9.00708 7.59375 10.5208 7.59375 12.3821C7.59375 13.3895 7.14769 14.2929 6.44456 14.9116H13.6012C14.7206 14.9116 15.6263 14.006 15.6263 12.8923V11.8291H13.4213C11.9604 11.8291 10.7719 10.6406 10.7719 9.17977V8.81977C10.7719 7.35895 11.9604 6.17039 13.4213 6.17039Z" fill="currentColor"/>
<path d="M4.21875 9.85059C2.82094 9.85059 1.6875 10.984 1.6875 12.3818C1.6875 13.7796 2.82094 14.9131 4.21875 14.9131C5.61656 14.9131 6.75 13.7796 6.75 12.3818C6.75 10.984 5.61656 9.85059 4.21875 9.85059ZM5.08556 12.8881H4.72556V13.2481C4.72556 13.5276 4.49887 13.7543 4.21931 13.7543C3.93975 13.7543 3.71306 13.5276 3.71306 13.2481V12.8881H3.35306C3.0735 12.8881 2.84681 12.6614 2.84681 12.3818C2.84681 12.1023 3.0735 11.8756 3.35306 11.8756H3.71306V11.515C3.71306 11.2355 3.93975 11.0088 4.21931 11.0088C4.49887 11.0088 4.72556 11.2355 4.72556 11.515V11.8756H5.08556C5.36513 11.8756 5.59181 12.1023 5.59181 12.3818C5.59181 12.6614 5.36513 12.8881 5.08556 12.8881Z" fill="currentColor"/>
</svg>
