<svg width="18" height="18" viewBox="0 0 18 18" fill="none" xmlns="http://www.w3.org/2000/svg">
    <g clip-path="url(#clip0_4431_1078)">
        <path
            d="M18 14.25C18 15.4905 16.9905 16.5 15.75 16.5V17.25C15.75 17.664 15.4148 18 15 18C14.5852 18 14.25 17.664 14.25 17.25V16.5H14.049C13.2488 16.5 12.5018 16.0695 12.1005 15.3757C11.8928 15.0173 12.0157 14.559 12.3735 14.3512C12.7335 14.1435 13.1918 14.2665 13.398 14.625C13.5323 14.856 13.7813 15 14.0483 15H15.7493C16.1632 15 16.4993 14.6632 16.4993 14.25C16.4993 13.9665 16.296 13.7265 16.0163 13.68L13.7355 13.2997C12.729 13.1325 11.9992 12.27 11.9992 11.25C11.9992 10.0095 13.0087 9 14.2493 9V8.25C14.2493 7.836 14.5845 7.5 14.9993 7.5C15.414 7.5 15.7493 7.836 15.7493 8.25V9H15.9503C16.7505 9 17.4975 9.43125 17.8988 10.125C18.1065 10.4835 17.9835 10.9418 17.6257 11.1495C17.265 11.3565 16.8075 11.2335 16.6012 10.8758C16.467 10.644 16.218 10.5008 15.951 10.5008H14.25C13.836 10.5008 13.5 10.8375 13.5 11.2508C13.5 11.5343 13.7032 11.7743 13.983 11.8207L16.2638 12.201C17.2703 12.3682 18 13.23 18 14.25ZM9.75 6H14.655C14.3948 5.31525 13.995 4.68525 13.4618 4.152L10.8488 1.5375C10.3147 1.00425 9.68475 0.6045 9 0.345V5.25C9 5.66325 9.336 6 9.75 6ZM12.6517 17.7277C12.2182 17.9032 11.7458 18 11.25 18H3.75C1.68225 18 0 16.3177 0 14.25V3.75C0 1.68225 1.68225 0 3.75 0H7.13625C7.2585 0 7.37925 0.00975 7.5 0.018V5.25C7.5 6.4905 8.5095 7.5 9.75 7.5H12.879C12.8453 7.59525 12.8175 7.69275 12.7965 7.79325C11.874 8.1825 11.1383 8.93175 10.7655 9.86325C10.5653 9.7905 10.3492 9.75 10.1242 9.75H4.875C3.8415 9.75 3 10.5915 3 11.625V13.125C3 14.1585 3.8415 15 4.875 15H10.125C10.2533 15 10.3785 14.9873 10.4992 14.9625C10.4917 15.3675 10.5945 15.768 10.8022 16.1265C11.2267 16.8615 11.8853 17.4195 12.6517 17.7285V17.7277ZM3 4.5C3 4.914 3.336 5.25 3.75 5.25H5.25C5.664 5.25 6 4.914 6 4.5C6 4.086 5.664 3.75 5.25 3.75H3.75C3.336 3.75 3 4.086 3 4.5ZM3 7.5C3 7.914 3.336 8.25 3.75 8.25H5.25C5.664 8.25 6 7.914 6 7.5C6 7.086 5.664 6.75 5.25 6.75H3.75C3.336 6.75 3 7.086 3 7.5ZM4.875 11.25C4.668 11.25 4.5 11.418 4.5 11.625V13.125C4.5 13.332 4.668 13.5 4.875 13.5H10.125C10.332 13.5 10.5 13.332 10.5 13.125V11.625C10.5 11.418 10.332 11.25 10.125 11.25H4.875Z"
            fill="currentColor" />
    </g>
    <defs>
        <clipPath id="clip0_4431_1078">
            <rect width="18" height="18" fill="white" />
        </clipPath>
    </defs>
</svg>
