<svg width="18" height="18" viewBox="0 0 18 18" fill="none" xmlns="http://www.w3.org/2000/svg">
<path d="M15.75 2.8125H2.25C1.63125 2.8125 1.125 3.31875 1.125 3.9375V7.3125C1.125 7.93125 1.63125 8.4375 2.25 8.4375H3.375V6.1875H2.8125C2.50312 6.1875 2.25 5.93438 2.25 5.625C2.25 5.31562 2.50312 5.0625 2.8125 5.0625H15.1875C15.4969 5.0625 15.75 5.31562 15.75 5.625C15.75 5.93438 15.4969 6.1875 15.1875 6.1875H14.625V8.4375H15.75C16.3687 8.4375 16.875 7.93125 16.875 7.3125V3.9375C16.875 3.31875 16.3687 2.8125 15.75 2.8125Z" fill="currentColor"/>
<path d="M9 10.6875C9.62132 10.6875 10.125 10.1838 10.125 9.5625C10.125 8.94118 9.62132 8.4375 9 8.4375C8.37868 8.4375 7.875 8.94118 7.875 9.5625C7.875 10.1838 8.37868 10.6875 9 10.6875Z" fill="currentColor"/>
<path d="M4.5 11.8125H5.0625C6.615 11.8125 7.875 13.0725 7.875 14.625V15.1875H10.125V14.625C10.125 13.0725 11.385 11.8125 12.9375 11.8125H13.5V6.1875H4.5V11.8125ZM9 7.3125C10.2431 7.3125 11.25 8.31938 11.25 9.5625C11.25 10.8056 10.2431 11.8125 9 11.8125C7.75688 11.8125 6.75 10.8056 6.75 9.5625C6.75 8.31938 7.75688 7.3125 9 7.3125Z" fill="currentColor"/>
<path d="M11.25 14.625V15.1875H12.375C12.9937 15.1875 13.5 14.6812 13.5 14.0625V12.9375H12.9375C12.0094 12.9375 11.25 13.6969 11.25 14.625Z" fill="currentColor"/>
<path d="M5.0625 12.9375H4.5V14.0625C4.5 14.6812 5.00625 15.1875 5.625 15.1875H6.75V14.625C6.75 13.6969 5.99063 12.9375 5.0625 12.9375Z" fill="currentColor"/>
</svg>
