<svg width="18" height="18" viewBox="0 0 18 18" fill="none" xmlns="http://www.w3.org/2000/svg">
<g clip-path="url(#clip0_1088_7876)">
<path d="M8.25 3V6C8.25 6.59674 8.01295 7.16903 7.59099 7.59099C7.16903 8.01295 6.59674 8.25 6 8.25H3C2.40326 8.25 1.83097 8.01295 1.40901 7.59099C0.987053 7.16903 0.75 6.59674 0.75 6V3C0.75 2.40326 0.987053 1.83097 1.40901 1.40901C1.83097 0.987053 2.40326 0.75 3 0.75H6C6.59674 0.75 7.16903 0.987053 7.59099 1.40901C8.01295 1.83097 8.25 2.40326 8.25 3ZM15 0.75H12C11.4033 0.75 10.831 0.987053 10.409 1.40901C9.98705 1.83097 9.75 2.40326 9.75 3V6C9.75 6.59674 9.98705 7.16903 10.409 7.59099C10.831 8.01295 11.4033 8.25 12 8.25H15C15.5967 8.25 16.169 8.01295 16.591 7.59099C17.0129 7.16903 17.25 6.59674 17.25 6V3C17.25 2.40326 17.0129 1.83097 16.591 1.40901C16.169 0.987053 15.5967 0.75 15 0.75ZM6 9.75H3C2.40326 9.75 1.83097 9.98705 1.40901 10.409C0.987053 10.831 0.75 11.4033 0.75 12V15C0.75 15.5967 0.987053 16.169 1.40901 16.591C1.83097 17.0129 2.40326 17.25 3 17.25H6C6.59674 17.25 7.16903 17.0129 7.59099 16.591C8.01295 16.169 8.25 15.5967 8.25 15V12C8.25 11.4033 8.01295 10.831 7.59099 10.409C7.16903 9.98705 6.59674 9.75 6 9.75ZM15 9.75H12C11.4033 9.75 10.831 9.98705 10.409 10.409C9.98705 10.831 9.75 11.4033 9.75 12V15C9.75 15.5967 9.98705 16.169 10.409 16.591C10.831 17.0129 11.4033 17.25 12 17.25H15C15.5967 17.25 16.169 17.0129 16.591 16.591C17.0129 16.169 17.25 15.5967 17.25 15V12C17.25 11.4033 17.0129 10.831 16.591 10.409C16.169 9.98705 15.5967 9.75 15 9.75Z" fill="currentColor"/>
</g>
<defs>
<clipPath id="clip0_1088_7876">
<rect width="18" height="18" fill="white"/>
</clipPath>
</defs>
</svg>
