<svg width="18" height="18" viewBox="0 0 18 18" fill="none" xmlns="http://www.w3.org/2000/svg">
<g clip-path="url(#clip0_1088_7960)">
<path d="M11.4525 1.50684C9.00335 1.50684 6.97273 3.2534 6.51654 5.56865C6.52723 5.56865 6.53679 5.56696 6.54748 5.56696C9.79198 5.56696 12.4318 8.20677 12.4318 11.4518C12.4318 11.462 12.4301 11.4721 12.4301 11.4822C14.7454 11.026 16.4919 8.9954 16.4919 6.54627C16.4925 3.76246 14.2369 1.50684 11.4525 1.50684Z" fill="currentColor"/>
<path d="M6.54796 6.41113C3.76415 6.41113 1.50684 8.66788 1.50684 11.4523C1.50684 14.2361 3.76359 16.4934 6.54796 16.4934C9.33234 16.4934 11.5891 14.2366 11.5891 11.4523C11.5891 8.66788 9.33234 6.41113 6.54796 6.41113ZM7.05196 13.6173V13.8395C7.05196 14.1191 6.82527 14.3458 6.54571 14.3458C6.26615 14.3458 6.03946 14.1191 6.03946 13.8395V13.7529C5.79477 13.7416 5.55965 13.6443 5.38415 13.475C5.18784 13.2849 5.07984 13.0301 5.07984 12.7573C5.07984 12.4788 5.30484 12.2544 5.58384 12.2533H5.58609C5.85946 12.2533 6.08277 12.4726 6.09177 12.7443C6.2369 12.7387 7.17402 12.6858 7.18359 12.3106C7.18527 12.2566 7.05309 12.0873 6.43209 11.9461C5.36896 11.7043 4.85427 11.2261 4.90209 10.523C4.92796 10.1422 5.12877 9.55494 6.03946 9.28776V9.06445C6.03946 8.78488 6.26615 8.5582 6.54571 8.5582C6.82527 8.5582 7.05196 8.78488 7.05196 9.06445V9.15276C7.30171 9.15951 7.52502 9.25513 7.70334 9.42782C7.89796 9.6157 8.00934 9.87838 8.00934 10.1484C8.00934 10.4279 7.78265 10.6546 7.50309 10.6546C7.22352 10.6546 6.99684 10.4279 6.99684 10.1484C6.68971 10.172 5.93652 10.2361 5.91234 10.5922C5.91009 10.6248 5.93596 10.7947 6.65652 10.9584C7.69602 11.1946 8.21352 11.6587 8.19609 12.3371C8.18765 12.6599 8.04084 13.3259 7.05196 13.6173Z" fill="currentColor"/>
<path d="M1.63164 5.22659V4.46272C1.63164 3.55822 2.36739 2.82247 3.27189 2.82247H4.04027L3.74777 3.11497C3.54977 3.31297 3.54977 3.63359 3.74777 3.83103C3.84677 3.93003 3.97614 3.97953 4.10552 3.97953C4.23489 3.97953 4.36427 3.93003 4.46327 3.83103L5.62033 2.67397C5.66702 2.62728 5.70414 2.57159 5.72945 2.50916C5.78064 2.38541 5.78064 2.24591 5.72945 2.12216C5.70358 2.06028 5.66702 2.00403 5.62033 1.95734L4.46383 0.800844C4.26583 0.602844 3.94577 0.602844 3.74833 0.800844C3.55089 0.998844 3.55033 1.31947 3.74833 1.51691L4.04083 1.80941H3.27189C1.80883 1.80941 0.619141 2.99966 0.619141 4.46272V5.22659C0.619141 5.50616 0.845828 5.73284 1.12539 5.73284C1.40495 5.73284 1.63164 5.50616 1.63164 5.22659Z" fill="currentColor"/>
<path d="M16.8754 12.2656C16.5959 12.2656 16.3692 12.4923 16.3692 12.7719V13.5358C16.3692 14.4403 15.6334 15.176 14.7295 15.176H13.9606L14.2531 14.8835C14.4511 14.6855 14.4511 14.3649 14.2531 14.1674C14.0551 13.97 13.7344 13.9694 13.537 14.1674L12.3799 15.3245C12.3766 15.3279 12.376 15.3324 12.3726 15.3358C12.3304 15.3802 12.295 15.4314 12.2708 15.4893C12.2196 15.6131 12.2196 15.7531 12.2708 15.8769C12.295 15.9348 12.3304 15.9854 12.3726 16.0304C12.376 16.0338 12.3766 16.0383 12.3799 16.0417L13.537 17.1988C13.636 17.2978 13.7654 17.3472 13.8953 17.3472C14.0253 17.3472 14.1546 17.2978 14.2536 17.1988C14.4516 17.0008 14.4516 16.6801 14.2536 16.4827L13.9611 16.1902H14.7301C16.1926 16.1902 17.3828 14.9999 17.3828 13.5369V12.773C17.3817 12.4923 17.155 12.2656 16.8754 12.2656Z" fill="currentColor"/>
</g>
<defs>
<clipPath id="clip0_1088_7960">
<rect width="18" height="18" fill="white"/>
</clipPath>
</defs>
</svg>
