<svg width="18" height="18" viewBox="0 0 18 18" fill="none" xmlns="http://www.w3.org/2000/svg">
<path d="M15.7504 7.50041V5.25041C15.794 4.94478 15.7659 4.6332 15.6682 4.34033C15.5706 4.04745 15.4061 3.78133 15.1878 3.56303C14.9695 3.34473 14.7034 3.18025 14.4105 3.08259C14.1176 2.98494 13.806 2.9568 13.5004 3.00041H4.50041C4.19478 2.9568 3.8832 2.98494 3.59033 3.08259C3.29745 3.18025 3.03133 3.34473 2.81303 3.56303C2.59473 3.78133 2.43025 4.04745 2.33259 4.34033C2.23494 4.6332 2.2068 4.94478 2.25041 5.25041V7.50041C2.64823 7.50041 3.02977 7.65845 3.31107 7.93975C3.59238 8.22105 3.75041 8.60259 3.75041 9.00041C3.75041 9.39823 3.59238 9.77977 3.31107 10.0611C3.02977 10.3424 2.64823 10.5004 2.25041 10.5004V12.7504C2.2068 13.056 2.23494 13.3676 2.33259 13.6605C2.43025 13.9534 2.59473 14.2195 2.81303 14.4378C3.03133 14.6561 3.29745 14.8206 3.59033 14.9182C3.8832 15.0159 4.19478 15.044 4.50041 15.0004H13.5004C13.806 15.044 14.1176 15.0159 14.4105 14.9182C14.7034 14.8206 14.9695 14.6561 15.1878 14.4378C15.4061 14.2195 15.5706 13.9534 15.6682 13.6605C15.7659 13.3676 15.794 13.056 15.7504 12.7504V10.5004C15.3526 10.5004 14.9711 10.3424 14.6898 10.0611C14.4084 9.77977 14.2504 9.39823 14.2504 9.00041C14.2504 8.60259 14.4084 8.22105 14.6898 7.93975C14.9711 7.65845 15.3526 7.50041 15.7504 7.50041ZM12.0799 8.61641L10.9324 9.72641C10.8911 9.76624 10.8602 9.81555 10.8423 9.87005C10.8244 9.92456 10.82 9.9826 10.8297 10.0392L11.0929 11.5587C11.1046 11.6283 11.0966 11.6998 11.0697 11.7652C11.0429 11.8305 10.9984 11.887 10.9411 11.9284C10.8838 11.9697 10.8162 11.9942 10.7457 11.9991C10.6753 12.004 10.6048 11.9892 10.5424 11.9562L9.16541 11.2384C9.11448 11.2118 9.05787 11.1979 9.00041 11.1979C8.94295 11.1979 8.88634 11.2118 8.83541 11.2384L7.45991 11.9554C7.39736 11.9884 7.32685 12.0032 7.25632 11.9982C7.18579 11.9933 7.11805 11.9687 7.06074 11.9273C7.00342 11.8859 6.95882 11.8293 6.93195 11.7639C6.90508 11.6985 6.89701 11.6269 6.90866 11.5572L7.17116 10.0392C7.18078 9.9826 7.17644 9.92456 7.15854 9.87005C7.14063 9.81555 7.10969 9.76624 7.06841 9.72641L5.92091 8.61641C5.87387 8.5705 5.84064 8.51232 5.82499 8.44848C5.80933 8.38464 5.81188 8.31769 5.83234 8.25523C5.85279 8.19276 5.89034 8.13727 5.94073 8.09506C5.99112 8.05285 6.05233 8.0256 6.11741 8.01641L7.70441 7.79141C7.76132 7.78337 7.81541 7.76163 7.86206 7.72805C7.9087 7.69448 7.94648 7.65007 7.97216 7.59866L8.65991 6.21641C8.69141 6.15304 8.73997 6.09972 8.80013 6.06244C8.86028 6.02517 8.92964 6.00542 9.00041 6.00542C9.07118 6.00542 9.14054 6.02517 9.2007 6.06244C9.26085 6.09972 9.30941 6.15304 9.34091 6.21641L10.0287 7.59866C10.0543 7.65007 10.0921 7.69448 10.1388 7.72805C10.1854 7.76163 10.2395 7.78337 10.2964 7.79141L11.8834 8.01641C11.9485 8.0256 12.0097 8.05285 12.0601 8.09506C12.1105 8.13727 12.148 8.19276 12.1685 8.25523C12.1889 8.31769 12.1915 8.38464 12.1758 8.44848C12.1602 8.51232 12.1269 8.5705 12.0799 8.61641Z" fill="currentColor"/>
</svg>
