<svg width="18" height="18" viewBox="0 0 18 18" fill="none" xmlns="http://www.w3.org/2000/svg">
    <g clip-path="url(#clip0_5136_905)">
        <path
            d="M7.40719 5.30176C7.14808 5.30176 6.86485 5.39483 6.66935 5.61541C6.41331 5.90426 6.33304 6.76745 6.34254 7.20307C6.77485 7.21353 7.60138 7.20207 7.93623 6.8691C8.28635 6.52091 8.38215 5.91249 8.00985 5.54222C7.84781 5.38107 7.63146 5.30176 7.40719 5.30176Z"
            fill="currentColor" />
        <path
            d="M4.10802 5.30176C4.36713 5.30176 4.65036 5.39483 4.84586 5.61541C5.1019 5.90426 5.18217 6.76745 5.17267 7.20307C4.74036 7.21353 3.91379 7.20207 3.57898 6.8691C3.22886 6.52091 3.13305 5.91249 3.50536 5.54222C3.6674 5.38107 3.88375 5.30176 4.10802 5.30176Z"
            fill="currentColor" />
        <path
            d="M8.82619 4.72386C9.48361 5.37755 9.57119 6.40786 9.12077 7.20213H18.0004V4.30167C18.0004 3.39132 17.261 2.65332 16.349 2.65332H6.33496V4.43305C7.14427 3.9764 8.16688 4.06828 8.82619 4.72386C9.20073 5.09628 8.16688 4.06828 8.82619 4.72386Z"
            fill="currentColor" />
        <path
            d="M3.91227 10.4468L3.093 9.63287L4.36581 8.35645H0V13.6977C0 14.6081 0.739346 15.3461 1.65135 15.3461H5.17862V9.17691L3.91227 10.4468Z"
            fill="currentColor" />
        <path
            d="M7.14269 8.35645L8.39854 9.62233L7.57715 10.4342L6.33496 9.18206V15.3461H16.349C17.261 15.3461 18.0004 14.6081 18.0004 13.6978V8.35645H7.14269Z"
            fill="currentColor" />
        <path
            d="M2.39281 7.20213C1.94231 6.40774 2.03004 5.37751 2.68738 4.72386C3.34665 4.06828 4.36927 3.97644 5.17862 4.43305V2.65332H1.65135C0.739346 2.65332 0 3.39132 0 4.30167V7.20213H2.39281Z"
            fill="currentColor" />
    </g>
    <defs>
        <clipPath id="clip0_5136_905">
            <rect width="18" height="18" fill="white" />
        </clipPath>
    </defs>
</svg>
