<svg width="18" height="18" viewBox="0 0 18 18" fill="none" xmlns="http://www.w3.org/2000/svg">
<path d="M9 9.5625C11.4853 9.5625 13.5 7.54778 13.5 5.0625C13.5 2.57722 11.4853 0.5625 9 0.5625C6.51472 0.5625 4.5 2.57722 4.5 5.0625C4.5 7.54778 6.51472 9.5625 9 9.5625Z" fill="currentColor"/>
<path d="M2.8125 17.4371H9.765C8.77729 16.6455 8.12323 15.5115 7.93255 14.2601C7.74188 13.0088 8.02852 11.7314 8.73562 10.6815C7.28143 10.6093 5.91123 9.97858 4.91062 8.9209C3.78894 9.3944 2.83166 10.1879 2.15838 11.2024C1.4851 12.2168 1.12567 13.4071 1.125 14.6246V15.7496C1.12634 16.1968 1.30455 16.6252 1.62073 16.9414C1.93691 17.2576 2.36536 17.4358 2.8125 17.4371Z" fill="currentColor"/>
<path d="M9 13.5C9 14.2788 9.23093 15.04 9.66359 15.6876C10.0962 16.3351 10.7112 16.8398 11.4307 17.1378C12.1502 17.4358 12.9419 17.5138 13.7057 17.3618C14.4695 17.2099 15.1711 16.8349 15.7217 16.2842C16.2724 15.7336 16.6474 15.032 16.7993 14.2682C16.9513 13.5044 16.8733 12.7127 16.5753 11.9932C16.2773 11.2737 15.7726 10.6587 15.1251 10.2261C14.4775 9.79343 13.7163 9.5625 12.9375 9.5625C11.8936 9.56369 10.8927 9.97892 10.1546 10.7171C9.41642 11.4552 9.00119 12.4561 9 13.5ZM13.5 12.375V12.9375H14.0625C14.2117 12.9375 14.3548 12.9968 14.4602 13.1023C14.5657 13.2077 14.625 13.3508 14.625 13.5C14.625 13.6492 14.5657 13.7923 14.4602 13.8977C14.3548 14.0032 14.2117 14.0625 14.0625 14.0625H13.5V14.625C13.5 14.7742 13.4407 14.9173 13.3352 15.0227C13.2298 15.1282 13.0867 15.1875 12.9375 15.1875C12.7883 15.1875 12.6452 15.1282 12.5398 15.0227C12.4343 14.9173 12.375 14.7742 12.375 14.625V14.0625H11.8125C11.6633 14.0625 11.5202 14.0032 11.4148 13.8977C11.3093 13.7923 11.25 13.6492 11.25 13.5C11.25 13.3508 11.3093 13.2077 11.4148 13.1023C11.5202 12.9968 11.6633 12.9375 11.8125 12.9375H12.375V12.375C12.375 12.2258 12.4343 12.0827 12.5398 11.9773C12.6452 11.8718 12.7883 11.8125 12.9375 11.8125C13.0867 11.8125 13.2298 11.8718 13.3352 11.9773C13.4407 12.0827 13.5 12.2258 13.5 12.375Z" fill="currentColor"/>
</svg>
