<svg width="18" height="18" viewBox="0 0 18 18" fill="none" xmlns="http://www.w3.org/2000/svg">
<path fill-rule="evenodd" clip-rule="evenodd" d="M3.75 1.5H14.25C15.075 1.5 15.75 2.175 15.75 3V14.4C15.75 15.45 14.7 16.2 13.725 15.825L12.525 15.375C12.15 15.225 11.775 15.225 11.4 15.45L9.6 16.275C9.225 16.425 8.775 16.425 8.4 16.275L6.6 15.45C6.225 15.3 5.85 15.3 5.475 15.375L4.275 15.75C3.3 16.125 2.25 15.375 2.25 14.4V3C2.25 2.175 2.925 1.5 3.75 1.5ZM12.75 5.85C13.05 5.85 13.35 5.625 13.35 5.25C13.35 4.875 13.05 4.65 12.75 4.65H5.25C4.95 4.65 4.65 4.95 4.65 5.25C4.65 5.55 4.95 5.85 5.25 5.85H12.75ZM13.35 8.25C13.35 8.55 13.125 8.85 12.75 8.85H5.25C4.95 8.85 4.65 8.625 4.65 8.25C4.65 7.875 4.875 7.65 5.25 7.65H12.75C13.05 7.65 13.35 7.95 13.35 8.25ZM9 11.85C9.3 11.85 9.6 11.625 9.6 11.25C9.6 10.875 9.375 10.65 9 10.65H5.25C4.95 10.65 4.65 10.875 4.65 11.25C4.65 11.625 4.875 11.85 5.25 11.85H9Z" fill="currentColor"/>
</svg>
