<svg width="18" height="18" viewBox="0 0 18 18" fill="none" xmlns="http://www.w3.org/2000/svg">
<g clip-path="url(#clip0_1088_7915)">
<path d="M14.625 10.6871V7.31208H14.0625C13.9133 7.31208 13.7702 7.25282 13.6648 7.14733C13.5593 7.04184 13.5 6.89877 13.5 6.74958V6.18708H4.5V6.74958C4.5 6.89877 4.44074 7.04184 4.33525 7.14733C4.22976 7.25282 4.08668 7.31208 3.9375 7.31208H3.375V10.6871H3.9375C4.08668 10.6871 4.22976 10.7463 4.33525 10.8518C4.44074 10.9573 4.5 11.1004 4.5 11.2496V11.8121H13.5V11.2496C13.5 11.1004 13.5593 10.9573 13.6648 10.8518C13.7702 10.7463 13.9133 10.6871 14.0625 10.6871H14.625ZM9 11.2496C8.55499 11.2496 8.11998 11.1176 7.74997 10.8704C7.37996 10.6232 7.09157 10.2718 6.92127 9.86062C6.75097 9.44949 6.70642 8.99709 6.79323 8.56063C6.88005 8.12417 7.09434 7.72326 7.40901 7.40859C7.72368 7.09393 8.12459 6.87963 8.56105 6.79282C8.9975 6.706 9.4499 6.75056 9.86104 6.92085C10.2722 7.09115 10.6236 7.37954 10.8708 7.74955C11.118 8.11956 11.25 8.55458 11.25 8.99958C11.2493 9.59611 11.012 10.168 10.5902 10.5898C10.1684 11.0116 9.59653 11.2489 9 11.2496ZM10.125 8.99958C10.125 9.22209 10.059 9.4396 9.9354 9.6246C9.81179 9.80961 9.63609 9.9538 9.43052 10.0389C9.22495 10.1241 8.99875 10.1464 8.78052 10.103C8.56229 10.0596 8.36184 9.95241 8.2045 9.79508C8.04717 9.63774 7.94002 9.43729 7.89662 9.21906C7.85321 9.00083 7.87549 8.77463 7.96064 8.56907C8.04578 8.3635 8.18998 8.1878 8.37498 8.06418C8.55999 7.94056 8.7775 7.87458 9 7.87458C9.29828 7.87488 9.58425 7.9935 9.79517 8.20442C10.0061 8.41533 10.1247 8.70131 10.125 8.99958ZM16.875 3.37458H12.1893C12.1242 3.31073 12.0443 3.2641 11.9567 3.2389L2.83145 0.816694C2.76007 0.797732 2.68565 0.793023 2.61245 0.802834C2.53925 0.812645 2.46869 0.836785 2.40483 0.873874C2.34096 0.910963 2.28502 0.960274 2.24022 1.01899C2.19542 1.07771 2.16262 1.14467 2.14371 1.21607L1.57084 3.37458H1.125C0.975816 3.37458 0.832742 3.43385 0.727252 3.53934C0.621763 3.64483 0.5625 3.7879 0.5625 3.93708V14.0621C0.5625 14.2113 0.621763 14.3543 0.727252 14.4598C0.832742 14.5653 0.975816 14.6246 1.125 14.6246H5.8107C5.87576 14.6884 5.9557 14.7351 6.0433 14.7603L15.1685 17.1825C15.2399 17.2014 15.3143 17.2061 15.3876 17.1963C15.4608 17.1865 15.5313 17.1624 15.5952 17.1253C15.659 17.0882 15.715 17.0389 15.7598 16.9802C15.8046 16.9215 15.8374 16.8545 15.8563 16.7831L16.4292 14.6246H16.875C17.0242 14.6246 17.1673 14.5653 17.2727 14.4598C17.3782 14.3543 17.4375 14.2113 17.4375 14.0621V3.93708C17.4375 3.7879 17.3782 3.64483 17.2727 3.53934C17.1673 3.43385 17.0242 3.37458 16.875 3.37458ZM3.08661 2.04826L8.08369 3.37458H2.7345L3.08661 2.04826ZM3.375 12.3746V11.8121H2.8125C2.66332 11.8121 2.52024 11.7528 2.41475 11.6473C2.30926 11.5418 2.25 11.3988 2.25 11.2496V6.74958C2.25 6.6004 2.30926 6.45733 2.41475 6.35184C2.52024 6.24635 2.66332 6.18708 2.8125 6.18708H3.375V5.62458C3.375 5.4754 3.43426 5.33233 3.53975 5.22684C3.64524 5.12135 3.78832 5.06208 3.9375 5.06208H14.0625C14.2117 5.06208 14.3548 5.12135 14.4602 5.22684C14.5657 5.33233 14.625 5.4754 14.625 5.62458V6.18708H15.1875C15.3367 6.18708 15.4798 6.24635 15.5852 6.35184C15.6907 6.45733 15.75 6.6004 15.75 6.74958V11.2496C15.75 11.3988 15.6907 11.5418 15.5852 11.6473C15.4798 11.7528 15.3367 11.8121 15.1875 11.8121H14.625V12.3746C14.625 12.5238 14.5657 12.6668 14.4602 12.7723C14.3548 12.8778 14.2117 12.9371 14.0625 12.9371H3.9375C3.78832 12.9371 3.64524 12.8778 3.53975 12.7723C3.43426 12.6668 3.375 12.5238 3.375 12.3746ZM14.9134 15.9509L9.91631 14.6246H15.2655L14.9134 15.9509Z" fill="currentColor"/>
</g>
<defs>
<clipPath id="clip0_1088_7915">
<rect width="18" height="18" fill="white"/>
</clipPath>
</defs>
</svg>
