<svg width="18" height="18" viewBox="0 0 18 18" fill="none" xmlns="http://www.w3.org/2000/svg">
<path d="M16.875 13.5V14.9062C16.875 15.6819 16.2439 16.3125 15.4688 16.3125H3.375C2.13412 16.3125 1.125 15.3034 1.125 14.0625C1.125 14.0625 1.125 4.50844 1.125 4.5C1.125 3.25912 2.13412 2.25 3.375 2.25H13.7812C14.2476 2.25 14.625 2.628 14.625 3.09375C14.625 3.5595 14.2476 3.9375 13.7812 3.9375H3.375C3.06506 3.9375 2.8125 4.1895 2.8125 4.5C2.8125 4.8105 3.06506 5.0625 3.375 5.0625H15.4688C16.2439 5.0625 16.875 5.69306 16.875 6.46875V7.875H14.0625C12.5117 7.875 11.25 9.13669 11.25 10.6875C11.25 12.2383 12.5117 13.5 14.0625 13.5H16.875Z" fill="currentColor"/>
<path d="M16.875 9V12.375H14.0625C13.1304 12.375 12.375 11.6196 12.375 10.6875C12.375 9.75544 13.1304 9 14.0625 9H16.875Z" fill="currentColor"/>
</svg>
