<svg width="18" height="18" viewBox="0 0 18 18" fill="none" xmlns="http://www.w3.org/2000/svg">
    <path
        d="M14.998 10.501H11.998C11.1696 10.501 10.498 11.1725 10.498 12.001V15.001C10.498 15.8294 11.1696 16.501 11.998 16.501H14.998C15.8265 16.501 16.498 15.8294 16.498 15.001V12.001C16.498 11.1725 15.8265 10.501 14.998 10.501Z"
        fill="currentColor" />
    <path
        d="M5.99805 1.50098H2.99805C2.16962 1.50098 1.49805 2.17255 1.49805 3.00098V6.00098C1.49805 6.8294 2.16962 7.50098 2.99805 7.50098H5.99805C6.82647 7.50098 7.49805 6.8294 7.49805 6.00098V3.00098C7.49805 2.17255 6.82647 1.50098 5.99805 1.50098Z"
        fill="currentColor" />
    <path
        d="M5.24902 10.502V11.252C5.24902 11.6498 5.40706 12.0313 5.68836 12.3126C5.96967 12.5939 6.3512 12.752 6.74902 12.752H7.49902M10.499 5.25195H11.249C11.6468 5.25195 12.0284 5.40999 12.3097 5.69129C12.591 5.9726 12.749 6.35413 12.749 6.75195V7.50195"
        stroke="currentColor" stroke-width="1.5" stroke-linecap="round" stroke-linejoin="round" />
</svg>
