<svg width="18" height="18" viewBox="0 0 18 18" fill="none" xmlns="http://www.w3.org/2000/svg">
    <g clip-path="url(#clip0_5012_1078)">
        <path
            d="M18 1.5V4.5C18 4.91475 17.6647 5.25 17.25 5.25C16.8353 5.25 16.5 4.91475 16.5 4.5V2.5605L14.0303 5.03025C13.884 5.1765 13.692 5.25 13.5 5.25C13.308 5.25 13.116 5.1765 12.9697 5.03025C12.6765 4.737 12.6765 4.263 12.9697 3.96975L15.4395 1.5H13.5C13.0852 1.5 12.75 1.16475 12.75 0.75C12.75 0.33525 13.0852 0 13.5 0H16.5C17.3272 0 18 0.67275 18 1.5ZM15.4515 5.73075C16.1175 6.921 16.5 8.28975 16.5 9.75C16.5 14.3062 12.8062 18 8.25 18C3.69375 18 0 14.3062 0 9.75C0 5.19375 3.69375 1.5 8.25 1.5C9.71025 1.5 11.0797 1.88325 12.2692 2.5485L11.9085 2.90925C11.031 3.78675 11.031 5.21325 11.9085 6.09075C12.333 6.51525 12.8985 6.75 13.4993 6.75C14.1 6.75 14.6655 6.516 15.09 6.09075L15.4508 5.73L15.4515 5.73075ZM11.25 11.25C11.25 10.2308 10.5195 9.3675 9.51375 9.20025L7.23375 8.82075C6.95325 8.77425 6.75 8.53425 6.75 8.25C6.75 7.836 7.086 7.5 7.5 7.5H9.201C9.468 7.5 9.717 7.64325 9.85125 7.87575C10.0575 8.23425 10.5157 8.358 10.8758 8.14875C11.2343 7.94175 11.3573 7.48275 11.1488 7.12425C10.7483 6.4305 10.0013 6 9.20025 6H8.99925V5.25C8.99925 4.83525 8.664 4.5 8.24925 4.5C7.8345 4.5 7.49925 4.83525 7.49925 5.25V6C6.25875 6 5.24925 7.0095 5.24925 8.25C5.24925 9.26925 5.97975 10.1325 6.9855 10.2997L9.2655 10.6793C9.546 10.7257 9.74925 10.9657 9.74925 11.25C9.74925 11.664 9.41325 12 8.99925 12H7.29825C7.03125 12 6.78225 11.8567 6.648 11.6242C6.44175 11.265 5.98275 11.1405 5.6235 11.3512C5.265 11.5583 5.142 12.0173 5.3505 12.3757C5.751 13.0695 6.498 13.5 7.299 13.5H7.5V14.25C7.5 14.6648 7.83525 15 8.25 15C8.66475 15 9 14.6648 9 14.25V13.5C10.2405 13.5 11.25 12.4905 11.25 11.25Z"
            fill="currentColor" />
    </g>
    <defs>
        <clipPath id="clip0_5012_1078">
            <rect width="18" height="18" fill="white" />
        </clipPath>
    </defs>
</svg>
