<svg width="18" height="18" viewBox="0 0 18 18" fill="none" xmlns="http://www.w3.org/2000/svg">
<g clip-path="url(#clip0_1088_7888)">
<path d="M1.5 6C1.30117 5.99974 1.11055 5.92064 0.969955 5.78005C0.829358 5.63945 0.750258 5.44883 0.75 5.25V3.75C0.750909 2.95463 1.06727 2.1921 1.62968 1.62968C2.1921 1.06727 2.95463 0.750909 3.75 0.75H5.25C5.44891 0.75 5.63968 0.829018 5.78033 0.96967C5.92098 1.11032 6 1.30109 6 1.5C6 1.69891 5.92098 1.88968 5.78033 2.03033C5.63968 2.17098 5.44891 2.25 5.25 2.25H3.75C3.3523 2.2504 2.971 2.40856 2.68978 2.68978C2.40856 2.971 2.2504 3.3523 2.25 3.75V5.25C2.24974 5.44883 2.17064 5.63945 2.03005 5.78005C1.88945 5.92064 1.69883 5.99974 1.5 6Z" fill="currentColor"/>
<path d="M16.5 6C16.3011 5.9998 16.1105 5.92072 15.9699 5.78011C15.8293 5.6395 15.7502 5.44885 15.75 5.25V3.75C15.7495 3.35231 15.5914 2.97105 15.3102 2.68984C15.029 2.40864 14.6477 2.25045 14.25 2.25H12.75C12.5511 2.25 12.3603 2.17098 12.2197 2.03033C12.079 1.88968 12 1.69891 12 1.5C12 1.30109 12.079 1.11032 12.2197 0.96967C12.3603 0.829018 12.5511 0.75 12.75 0.75H14.25C15.0454 0.750848 15.808 1.06719 16.3704 1.62962C16.9328 2.19204 17.2492 2.95461 17.25 3.75V5.25C17.2498 5.44885 17.1707 5.6395 17.0301 5.78011C16.8895 5.92072 16.6989 5.9998 16.5 6Z" fill="currentColor"/>
<path d="M3.75 17.25C2.95463 17.2491 2.1921 16.9327 1.62968 16.3703C1.06727 15.8079 0.750909 15.0454 0.75 14.25V12.75C0.75 12.5511 0.829018 12.3603 0.96967 12.2197C1.11032 12.079 1.30109 12 1.5 12C1.69891 12 1.88968 12.079 2.03033 12.2197C2.17098 12.3603 2.25 12.5511 2.25 12.75V14.25C2.2504 14.6477 2.40856 15.029 2.68978 15.3102C2.971 15.5914 3.3523 15.7496 3.75 15.75H5.25C5.44891 15.75 5.63968 15.829 5.78033 15.9697C5.92098 16.1103 6 16.3011 6 16.5C6 16.6989 5.92098 16.8897 5.78033 17.0303C5.63968 17.171 5.44891 17.25 5.25 17.25H3.75Z" fill="currentColor"/>
<path d="M12.75 17.25C12.5511 17.25 12.3603 17.171 12.2197 17.0303C12.079 16.8897 12 16.6989 12 16.5C12 16.3011 12.079 16.1103 12.2197 15.9697C12.3603 15.829 12.5511 15.75 12.75 15.75H14.25C14.6477 15.7495 15.029 15.5914 15.3102 15.3102C15.5914 15.029 15.7495 14.6477 15.75 14.25V12.75C15.75 12.5511 15.829 12.3603 15.9697 12.2197C16.1103 12.079 16.3011 12 16.5 12C16.6989 12 16.8897 12.079 17.0303 12.2197C17.171 12.3603 17.25 12.5511 17.25 12.75V14.25C17.2492 15.0454 16.9328 15.808 16.3704 16.3704C15.808 16.9328 15.0454 17.2492 14.25 17.25H12.75Z" fill="currentColor"/>
<path d="M7.125 3.5625H4.875C4.15013 3.5625 3.5625 4.15013 3.5625 4.875V7.125C3.5625 7.84987 4.15013 8.4375 4.875 8.4375H7.125C7.84987 8.4375 8.4375 7.84987 8.4375 7.125V4.875C8.4375 4.15013 7.84987 3.5625 7.125 3.5625Z" fill="currentColor"/>
<path d="M13.125 3.5625H10.875C10.1501 3.5625 9.5625 4.15013 9.5625 4.875V7.125C9.5625 7.84987 10.1501 8.4375 10.875 8.4375H13.125C13.8499 8.4375 14.4375 7.84987 14.4375 7.125V4.875C14.4375 4.15013 13.8499 3.5625 13.125 3.5625Z" fill="currentColor"/>
<path d="M7.125 9.5625H4.875C4.15013 9.5625 3.5625 10.1501 3.5625 10.875V13.125C3.5625 13.8499 4.15013 14.4375 4.875 14.4375H7.125C7.84987 14.4375 8.4375 13.8499 8.4375 13.125V10.875C8.4375 10.1501 7.84987 9.5625 7.125 9.5625Z" fill="currentColor"/>
<path d="M13.125 9.5625H10.875C10.1501 9.5625 9.5625 10.1501 9.5625 10.875V13.125C9.5625 13.8499 10.1501 14.4375 10.875 14.4375H13.125C13.8499 14.4375 14.4375 13.8499 14.4375 13.125V10.875C14.4375 10.1501 13.8499 9.5625 13.125 9.5625Z" fill="currentColor"/>
</g>
<defs>
<clipPath id="clip0_1088_7888">
<rect width="18" height="18" fill="white"/>
</clipPath>
</defs>
</svg>
