<svg width="18" height="18" viewBox="0 0 18 18" fill="none" xmlns="http://www.w3.org/2000/svg">
<g clip-path="url(#clip0_1088_7925)">
<path d="M15.9148 6.93752C15.6703 7.17702 15.342 7.31158 14.9998 7.31252H11.9998C11.8244 7.3125 11.6509 7.27677 11.4898 7.20752C11.3325 7.1443 11.1897 7.04992 11.0698 6.93005C10.9499 6.81018 10.8556 6.66731 10.7924 6.51002C10.7231 6.34892 10.6873 6.17539 10.6873 6.00002V3.00002C10.6882 2.65779 10.8227 2.32945 11.0623 2.08502C9.41863 1.53499 7.63739 1.5563 6.00739 2.1455C4.37738 2.73469 2.9942 3.85722 2.08212 5.33105C1.17004 6.80488 0.782563 8.5436 0.982509 10.2652C1.18245 11.9869 1.9581 13.5905 3.18368 14.8161C4.40925 16.0417 6.01288 16.8173 7.73454 17.0173C9.45619 17.2172 11.1949 16.8297 12.6687 15.9177C14.1426 15.0056 15.2651 13.6224 15.8543 11.9924C16.4435 10.3624 16.4648 8.58115 15.9148 6.93752ZM8.62477 8.81252C9.06774 8.81114 9.49654 8.96854 9.83341 9.25619C10.1703 9.54384 10.3929 9.94269 10.4609 10.3804C10.529 10.8181 10.4379 11.2657 10.2042 11.6421C9.97055 12.0184 9.60976 12.2985 9.18727 12.4316V12.9375C9.18727 13.0867 9.128 13.2298 9.02251 13.3353C8.91702 13.4408 8.77395 13.5 8.62477 13.5C8.47558 13.5 8.33251 13.4408 8.22702 13.3353C8.12153 13.2298 8.06227 13.0867 8.06227 12.9375V12.4316C7.68756 12.3133 7.36014 12.0789 7.12726 11.7624C6.89439 11.4459 6.7681 11.0636 6.76661 10.6706C6.76661 10.5215 6.82587 10.3784 6.93136 10.2729C7.03685 10.1674 7.17993 10.1081 7.32911 10.1081C7.4783 10.1081 7.62137 10.1674 7.72686 10.2729C7.83235 10.3784 7.89161 10.5215 7.89161 10.6706C7.89161 10.8156 7.9346 10.9574 8.01516 11.078C8.09571 11.1985 8.21021 11.2925 8.34418 11.348C8.47815 11.4035 8.62556 11.418 8.76778 11.3897C8.91 11.3615 9.04064 11.2916 9.14317 11.1891C9.24571 11.0866 9.31554 10.9559 9.34383 10.8137C9.37212 10.6715 9.35761 10.5241 9.30212 10.3901C9.24663 10.2561 9.15266 10.1416 9.03209 10.0611C8.91152 9.98052 8.76977 9.93752 8.62477 9.93752C8.18179 9.9389 7.75299 9.78149 7.41611 9.49384C7.07924 9.20618 6.8566 8.80733 6.78856 8.36961C6.72053 7.93189 6.81161 7.48427 7.04529 7.10794C7.27897 6.73161 7.63977 6.45148 8.06227 6.31835V5.81252C8.06227 5.66333 8.12153 5.52026 8.22702 5.41477C8.33251 5.30928 8.47558 5.25002 8.62477 5.25002C8.77395 5.25002 8.91702 5.30928 9.02251 5.41477C9.128 5.52026 9.18727 5.66333 9.18727 5.81252V6.31835C9.56197 6.43671 9.88938 6.67105 10.1223 6.98757C10.3551 7.30408 10.4814 7.6864 10.4829 8.07935C10.4829 8.22853 10.4237 8.37161 10.3182 8.4771C10.2127 8.58258 10.0696 8.64185 9.92042 8.64185C9.77124 8.64185 9.62816 8.58258 9.52267 8.4771C9.41718 8.37161 9.35792 8.22853 9.35792 8.07935C9.35792 7.93434 9.31492 7.7926 9.23435 7.67203C9.15379 7.55147 9.03929 7.4575 8.90532 7.40201C8.77136 7.34652 8.62394 7.33201 8.48173 7.3603C8.33951 7.38859 8.20887 7.45842 8.10634 7.56095C8.00381 7.66348 7.93399 7.79412 7.9057 7.93634C7.87741 8.07856 7.89193 8.22597 7.94742 8.35993C8.00291 8.4939 8.09688 8.6084 8.21745 8.68896C8.33802 8.76952 8.47976 8.81252 8.62477 8.81252Z" fill="currentColor"/>
<path d="M14.9998 6.5625H11.9998C11.8506 6.56246 11.7075 6.50318 11.6021 6.3977C11.4966 6.29222 11.4373 6.14917 11.4373 6V3C11.4373 2.85082 11.4965 2.70774 11.602 2.60225C11.7075 2.49676 11.8506 2.4375 11.9998 2.4375C12.1489 2.4375 12.292 2.49676 12.3975 2.60225C12.503 2.70774 12.5623 2.85082 12.5623 3V5.4375H14.9998C15.1489 5.4375 15.292 5.49676 15.3975 5.60225C15.503 5.70774 15.5623 5.85082 15.5623 6C15.5623 6.14918 15.503 6.29226 15.3975 6.39775C15.292 6.50324 15.1489 6.5625 14.9998 6.5625Z" fill="currentColor"/>
<path d="M11.9998 6.56294C11.8885 6.56293 11.7798 6.52993 11.6873 6.46812C11.5948 6.40631 11.5228 6.31846 11.4802 6.21569C11.4376 6.11292 11.4265 5.99983 11.4482 5.89073C11.4699 5.78163 11.5234 5.68141 11.6021 5.60274L16.1021 1.10274C16.2077 0.997899 16.3506 0.939183 16.4994 0.939454C16.6482 0.939725 16.7908 0.998961 16.896 1.10419C17.0013 1.20942 17.0605 1.35206 17.0608 1.50087C17.0611 1.64968 17.0023 1.79254 16.8975 1.89815L12.3975 6.39815C12.3453 6.45049 12.2834 6.492 12.2151 6.52029C12.1469 6.54857 12.0737 6.56307 11.9998 6.56294Z" fill="currentColor"/>
</g>
<defs>
<clipPath id="clip0_1088_7925">
<rect width="18" height="18" fill="white"/>
</clipPath>
</defs>
</svg>
