<svg width="18" height="18" viewBox="0 0 18 18" fill="none" xmlns="http://www.w3.org/2000/svg">
<g clip-path="url(#clip0_1088_7938)">
<path d="M17.4375 11.25C17.127 11.25 16.875 10.998 16.875 10.6875C16.875 8.51627 15.1088 6.75002 12.9375 6.75002H7.5V9.18752C7.5 9.68252 6.9045 9.93302 6.549 9.59402L2.424 5.65652C2.313 5.55077 2.25 5.40377 2.25 5.25002C2.25 5.09627 2.313 4.94927 2.424 4.84352L6.549 0.906021C6.906 0.565521 7.5 0.819021 7.5 1.31252V3.75002H12.1875C15.3923 3.75002 18 6.35777 18 9.56252V10.6875C18 10.998 17.748 11.25 17.4375 11.25Z" fill="currentColor"/>
<path d="M10.5 16.6875V14.25H5.8125C2.60775 14.25 0 11.6423 0 8.4375V7.3125C0 7.002 0.252 6.75 0.5625 6.75C0.873 6.75 1.125 7.002 1.125 7.3125C1.125 9.48375 2.89125 11.25 5.0625 11.25H10.5V8.8125C10.5 8.31975 11.0932 8.064 11.451 8.406L15.576 12.3435C15.687 12.4493 15.75 12.5963 15.75 12.75C15.75 12.9037 15.687 13.0507 15.576 13.1565L11.451 17.094C11.0932 17.4345 10.5 17.181 10.5 16.6875Z" fill="currentColor"/>
</g>
<defs>
<clipPath id="clip0_1088_7938">
<rect width="18" height="18" fill="white"/>
</clipPath>
</defs>
</svg>
