<svg width="18" height="18" viewBox="0 0 18 18" fill="none" xmlns="http://www.w3.org/2000/svg">
<path d="M17.4375 6.74959C17.4379 6.82362 17.4237 6.89701 17.3958 6.96554C17.3678 7.03408 17.3265 7.09641 17.2744 7.14897L13.8994 10.524C13.8468 10.5761 13.7845 10.6173 13.716 10.6453C13.6474 10.6733 13.574 10.6875 13.5 10.6871C13.4269 10.688 13.3543 10.6746 13.2863 10.6477C13.1827 10.6052 13.0941 10.5326 13.032 10.4394C12.9698 10.3462 12.9369 10.2366 12.9375 10.1246V8.43709H7.87501C7.72583 8.43709 7.58275 8.37783 7.47726 8.27234C7.37177 8.16685 7.31251 8.02378 7.31251 7.87459V5.62459C7.31251 5.47541 7.37177 5.33234 7.47726 5.22685C7.58275 5.12136 7.72583 5.06209 7.87501 5.06209H12.9375V3.37459C12.938 3.26335 12.9714 3.15474 13.0336 3.0625C13.0958 2.97026 13.1839 2.89853 13.2869 2.85638C13.3899 2.81424 13.503 2.80357 13.612 2.82572C13.721 2.84787 13.821 2.90186 13.8994 2.98084L17.2744 6.35584C17.3783 6.46062 17.4369 6.60203 17.4375 6.74959ZM10.125 9.56209H5.06251V7.87459C5.06196 7.76354 5.02854 7.65514 4.96648 7.56305C4.90442 7.47095 4.81648 7.39929 4.71376 7.35709C4.61132 7.31402 4.49842 7.30225 4.3893 7.32327C4.28018 7.3443 4.17974 7.39717 4.10063 7.47522L0.725634 10.8502C0.673501 10.9028 0.632256 10.9651 0.604263 11.0336C0.57627 11.1022 0.562081 11.1756 0.562509 11.2496C0.562081 11.3236 0.57627 11.397 0.604263 11.4655C0.632256 11.5341 0.673501 11.5964 0.725634 11.649L4.10063 15.024C4.15319 15.0761 4.21553 15.1173 4.28406 15.1453C4.3526 15.1733 4.42598 15.1875 4.50001 15.1871C4.5738 15.189 4.647 15.1736 4.71376 15.1421C4.81648 15.0999 4.90442 15.0282 4.96648 14.9361C5.02854 14.844 5.06196 14.7356 5.06251 14.6246V12.9371H10.125C10.2742 12.9371 10.4173 12.8778 10.5228 12.7723C10.6282 12.6669 10.6875 12.5238 10.6875 12.3746V10.1246C10.6875 9.97541 10.6282 9.83234 10.5228 9.72685C10.4173 9.62136 10.2742 9.56209 10.125 9.56209Z" fill="currentColor"/>
</svg>
