<svg width="18" height="18" viewBox="0 0 18 18" fill="none" xmlns="http://www.w3.org/2000/svg">
<path d="M4.5 2.25H13.5C15.15 2.25 16.5 3.6 16.5 5.25C16.5 6.525 15.75 7.575 14.625 8.025V5.25C14.625 4.95 14.475 4.65 14.325 4.425C14.175 4.2 13.8 4.125 13.5 4.125H4.5C4.2 4.125 3.9 4.275 3.675 4.425C3.45 4.575 3.375 4.95 3.375 5.25V8.025C2.25 7.575 1.5 6.525 1.5 5.25C1.5 3.6 2.85 2.25 4.5 2.25Z" fill="currentColor"/>
<path fill-rule="evenodd" clip-rule="evenodd" d="M13.5 5.25V14.25C13.5 15.075 12.825 15.75 12 15.75H6C5.175 15.75 4.5 15.075 4.5 14.25V5.25H13.5ZM7.875 10.875L8.4 11.4V8.25C8.4 7.95 8.625 7.65 9 7.65C9.375 7.65 9.6 7.875 9.6 8.25V11.4L10.125 10.875C10.35 10.65 10.725 10.65 10.95 10.875C11.175 11.1 11.175 11.475 10.95 11.7L9.975 12.675C9.45 13.2 8.625 13.2 8.1 12.675L7.125 11.7C6.9 11.475 6.9 11.1 7.125 10.875C7.35 10.65 7.65 10.65 7.875 10.875Z" fill="currentColor"/>
</svg>
